PathFileType	4	(X/Y/Z)	C:/Users/opensim2020/Desktop/walking_exp_matlab/subject02_walking04_straight_04.trc	
DataRate	CameraRate	NumFrames	NumMarkers	Units	OrigDataRate	OrigDataStartFrame	OrigNumFrames	
100.00	100.00	4	42	mm	100.00	3103	239	
Frame#	Time	LFHD			RFHD			LBHD			RBHD			C7			T10			CLAV			STRN			RBAK			LSHO			LUPA			LELB			LFRM			LWRA			LWRB			LFIN			RSHO			RUPA			RELB			RFRM			RWRA			RWRB			RFIN			LASI			RASI			LPSI			RPSI			LTHI			LKNE			LTIB			LANK			LHEE			LTOE			RTHI			RKNE			RTIB			RANK			RHEE			RTOE			*39			*40			*41			
		X1	Y1	Z1	X2	Y2	Z2	X3	Y3	Z3	X4	Y4	Z4	X5	Y5	Z5	X6	Y6	Z6	X7	Y7	Z7	X8	Y8	Z8	X9	Y9	Z9	X10	Y10	Z10	X11	Y11	Z11	X12	Y12	Z12	X13	Y13	Z13	X14	Y14	Z14	X15	Y15	Z15	X16	Y16	Z16	X17	Y17	Z17	X18	Y18	Z18	X19	Y19	Z19	X20	Y20	Z20	X21	Y21	Z21	X22	Y22	Z22	X23	Y23	Z23	X24	Y24	Z24	X25	Y25	Z25	X26	Y26	Z26	X27	Y27	Z27	X28	Y28	Z28	X29	Y29	Z29	X30	Y30	Z30	X31	Y31	Z31	X32	Y32	Z32	X33	Y33	Z33	X34	Y34	Z34	X35	Y35	Z35	X36	Y36	Z36	X37	Y37	Z37	X38	Y38	Z38	X39	Y39	Z39	X40	Y40	Z40	X41	Y41	Z41	X42	Y42	Z42	

180	1.790	1526.69202	-601.56854	1700.16516	1383.96460	-584.61902	1683.11255	1547.98352	-461.24359	1649.07642	1407.13538	-432.60516	1633.37512	1464.86145	-380.05875	1506.76318	1452.76843	-329.77042	1225.48889	1486.73450	-517.36554	1435.49854	1473.47559	-573.11584	1268.15674	1390.06750	-327.56796	1330.30273	1649.13977	-429.98035	1473.49292	1729.75171	-385.39682	1279.86768	1744.21497	-361.26929	1143.46484	1771.82849	-342.45526	1016.77783	1771.67029	-379.62872	879.74384	1789.50867	-327.96494	895.19684	1802.35718	-330.93845	829.01709	1285.48962	-472.82065	1476.79749	1194.91040	-470.62946	1286.34839	1170.37830	-511.38120	1145.28406	1155.74524	-570.08221	1039.41370	1180.05298	-648.69409	931.59650	1143.56213	-607.99194	915.24902	1143.76453	-663.14569	868.59790	1593.21680	-588.03046	987.92108	1339.06665	-577.85394	954.31293	1519.22339	-370.21729	1009.78406	1403.16187	-365.16364	1003.29968	1656.56104	-592.88306	679.98853	1624.81372	-609.12488	477.33099	1627.80859	-580.98077	283.93481	1593.97876	-607.07025	65.97614	1542.14941	-572.81146	37.84540	1602.58093	-763.78741	30.47143	1266.15710	-447.50870	656.03192	1276.11914	-411.08136	453.75552	1278.61694	-267.42099	331.28122	1315.64502	-141.98955	186.24586	1378.78662	-93.18383	165.00830	1302.87195	-210.15677	35.81572	1446.36511	-504.32309	1783.71948	-3360.25000	2845.15601	1033.82324			 
181	1.800	1528.75781	-610.38812	1701.15540	1386.03162	-593.44012	1684.41443	1550.32227	-469.92380	1650.15747	1409.28455	-441.42078	1634.69629	1466.70667	-388.69312	1507.62854	1454.98853	-338.94244	1226.39648	1488.85718	-526.39758	1436.95386	1476.14368	-582.52124	1269.69690	1391.95654	-336.39252	1331.29224	1650.82947	-438.39966	1475.23975	1732.43311	-395.79813	1281.44617	1747.79944	-373.26050	1144.92053	1775.76184	-356.91940	1017.83826	1775.39929	-396.59793	881.22522	1793.75342	-344.71265	896.14447	1806.64490	-348.83566	829.90387	1287.64331	-481.76849	1477.99487	1197.22266	-479.36649	1287.54688	1173.77087	-518.56018	1145.98865	1158.59436	-576.61121	1039.42676	1183.35193	-653.57697	930.64124	1146.56104	-612.73889	914.82220	1147.30652	-666.98907	867.10364	1596.39111	-597.26306	990.07379	1343.20093	-587.23767	955.72736	1521.80457	-379.87524	1010.34430	1405.71350	-374.49466	1004.34186	1658.53455	-600.85779	680.76233	1626.47937	-613.19611	477.10175	1627.23743	-581.59161	284.00800	1593.89111	-607.15112	65.91120	1542.25415	-572.62750	38.15187	1602.46387	-763.98285	30.22866	1267.93591	-460.92783	655.65851	1275.76440	-428.67535	453.45758	1278.30078	-283.71378	334.39255	1315.64856	-155.92038	191.98798	1379.34253	-107.00121	173.36736	1303.93701	-214.86156	37.64734	1448.74524	-513.15424	1784.88818	-3360.18018	2845.06030	1033.88794			 
182	1.810	1530.66296	-619.07312	1702.09265	1388.00659	-602.20465	1685.75537	1552.34338	-478.76276	1651.21851	1411.22803	-450.12982	1636.04395	1468.52063	-397.56750	1508.69250	1457.21411	-348.01114	1227.44531	1490.84180	-535.45709	1438.42542	1478.58545	-591.75647	1271.22937	1393.42175	-345.82895	1332.25085	1652.50513	-446.98828	1476.96411	1735.08948	-406.21109	1282.98254	1751.14258	-385.46634	1146.16589	1779.00891	-371.65698	1018.58948	1779.42346	-413.69522	883.15033	1797.74133	-361.74213	896.95636	1811.01135	-367.14587	830.97223	1289.64441	-490.69098	1479.04895	1199.34875	-488.30978	1288.56799	1177.22742	-525.18951	1146.41956	1161.89478	-582.06921	1039.33325	1186.56519	-658.08862	929.36749	1149.44348	-617.43488	914.44183	1150.63965	-671.30267	865.89081	1599.37463	-606.25446	991.65222	1346.77966	-596.39404	957.05206	1524.47583	-389.30246	1010.97235	1408.38928	-383.37451	1005.42230	1660.09985	-607.93030	681.33600	1628.04395	-616.45483	477.12766	1627.42859	-582.15057	284.29807	1593.90845	-607.17200	65.93967	1542.18335	-572.55176	38.10704	1602.44617	-764.06177	30.05720	1269.65125	-474.29443	654.96259	1275.43433	-446.62851	453.40942	1278.29089	-300.64731	337.13287	1315.99280	-170.21686	197.61816	1380.42542	-120.98478	181.49792	1304.57104	-221.79395	41.17041	1450.97461	-521.95215	1786.13745	-3360.19849	2845.08374	1033.81348			 
183	1.820	1532.52234	-627.90924	1703.33984	1389.89307	-611.01227	1687.23621	1554.23816	-487.62259	1652.37012	1413.38965	-458.97742	1637.33838	1470.45215	-406.45078	1509.86609	1459.57104	-356.93631	1228.65283	1492.66333	-544.36542	1439.84058	1480.81946	-600.83759	1272.72021	1395.69482	-354.33322	1333.58203	1654.15967	-455.88211	1478.59509	1737.59827	-416.81656	1284.34949	1754.66223	-397.58429	1147.39160	1782.83838	-386.42990	1019.54816	1783.14941	-431.19598	884.97150	1801.62549	-379.06860	897.79156	1815.20825	-386.08200	831.98822	1291.55334	-499.21243	1480.15576	1201.70972	-496.28445	1289.30029	1180.46069	-532.15295	1146.85583	1164.88782	-587.73578	1039.28491	1189.49829	-662.91608	928.40808	1152.20068	-622.13165	914.06403	1153.88696	-675.12012	864.41443	1602.08508	-615.10199	992.81055	1349.69910	-605.13922	958.31000	1527.31628	-398.42929	1011.88037	1411.35352	-391.80984	1006.53302	1661.43518	-614.60901	681.70728	1629.59375	-619.44220	477.39380	1628.62402	-583.06421	284.89438	1593.99194	-607.15411	65.94115	1542.73352	-571.75696	38.64714	1602.46375	-764.06079	29.94971	1271.31921	-487.46860	654.35052	1275.27502	-464.40765	453.64038	1278.35022	-317.83698	339.61191	1317.14343	-184.81111	203.19005	1381.87866	-136.10706	188.41801	1303.19885	-231.70441	45.59386	1453.06897	-530.65399	1787.46240	-3357.20654	2845.81567	1033.87927			 
